<svg width="209" height="89" viewBox="0 0 209 89" fill="none" xmlns="http://www.w3.org/2000/svg">
<path d="M31.758 61L21.592 46.786V61H12.576V28.57H21.592V42.554L31.666 28.57H42.062L30.148 44.302L42.66 61H31.758ZM54.969 38.782C55.6743 37.586 56.671 36.6353 57.959 35.93C59.247 35.2247 60.765 34.872 62.513 34.872C64.5676 34.872 66.423 35.4087 68.079 36.482C69.7656 37.5553 71.0843 39.0887 72.035 41.082C73.0163 43.0753 73.507 45.406 73.507 48.074C73.507 50.742 73.0163 53.088 72.035 55.112C71.0843 57.1053 69.7656 58.6387 68.079 59.712C66.423 60.7853 64.5676 61.322 62.513 61.322C60.765 61.322 59.247 60.9693 57.959 60.264C56.7016 59.5587 55.705 58.608 54.969 57.412V73.328H45.953V35.194H54.969V38.782ZM64.353 48.074C64.353 46.3873 63.893 45.084 62.973 44.164C62.0836 43.2133 60.9796 42.738 59.661 42.738C58.3423 42.738 57.223 43.2133 56.303 44.164C55.4136 45.1147 54.969 46.418 54.969 48.074C54.969 49.7607 55.4136 51.0793 56.303 52.03C57.223 52.9807 58.3423 53.456 59.661 53.456C60.9796 53.456 62.0836 52.9807 62.973 52.03C63.893 51.0487 64.353 49.73 64.353 48.074ZM97.9186 44.348C99.8199 44.7773 101.323 45.728 102.427 47.2C103.561 48.6413 104.129 50.2973 104.129 52.168C104.129 54.928 103.178 57.09 101.277 58.654C99.3752 60.218 96.7072 61 93.2726 61H77.2186V28.57H92.7666C96.0786 28.57 98.6699 29.306 100.541 30.778C102.442 32.25 103.393 34.32 103.393 36.988C103.393 38.8893 102.887 40.484 101.875 41.772C100.893 43.0293 99.5746 43.888 97.9186 44.348ZM86.2346 41.45H90.7886C93.0579 41.45 94.1926 40.5147 94.1926 38.644C94.1926 36.712 93.0579 35.746 90.7886 35.746H86.2346V41.45ZM91.4786 53.732C93.7479 53.732 94.8826 52.7813 94.8826 50.88C94.8826 49.8987 94.5759 49.1473 93.9626 48.626C93.3799 48.1047 92.5366 47.844 91.4326 47.844H86.2346V53.732H91.4786ZM106.608 48.074C106.608 45.406 107.083 43.0753 108.034 41.082C109.015 39.0887 110.334 37.5553 111.99 36.482C113.677 35.4087 115.547 34.872 117.602 34.872C119.381 34.872 120.914 35.2247 122.202 35.93C123.49 36.6353 124.487 37.586 125.192 38.782V35.194H134.208V61H125.192V57.412C124.487 58.608 123.475 59.5587 122.156 60.264C120.868 60.9693 119.35 61.322 117.602 61.322C115.547 61.322 113.677 60.7853 111.99 59.712C110.334 58.6387 109.015 57.1053 108.034 55.112C107.083 53.088 106.608 50.742 106.608 48.074ZM125.192 48.074C125.192 46.418 124.732 45.1147 123.812 44.164C122.923 43.2133 121.819 42.738 120.5 42.738C119.151 42.738 118.031 43.2133 117.142 44.164C116.253 45.084 115.808 46.3873 115.808 48.074C115.808 49.73 116.253 51.0487 117.142 52.03C118.031 52.9807 119.151 53.456 120.5 53.456C121.819 53.456 122.923 52.9807 123.812 52.03C124.732 51.0793 125.192 49.7607 125.192 48.074ZM156.228 34.964C159.202 34.964 161.564 35.9607 163.312 37.954C165.06 39.9167 165.934 42.5847 165.934 45.958V61H156.918V47.154C156.918 45.682 156.534 44.532 155.768 43.704C155.001 42.8453 153.974 42.416 152.686 42.416C151.336 42.416 150.278 42.8453 149.512 43.704C148.745 44.532 148.362 45.682 148.362 47.154V61H139.346V35.194H148.362V38.874C149.159 37.7087 150.232 36.7733 151.582 36.068C152.931 35.332 154.48 34.964 156.228 34.964ZM187.027 61L179.897 50.42V61H170.881V26.96H179.897V45.314L187.027 35.194H197.837L187.671 48.166L198.021 61H187.027Z" fill="black"/>
</svg>
