<svg width="881" height="700" viewBox="0 0 881 700" fill="none" xmlns="http://www.w3.org/2000/svg">
<rect x="168.689" y="0.551117" width="773" height="431" rx="30" transform="rotate(23 168.689 0.551117)" fill="url(#paint0_linear_37_4)"/>
<path d="M199.116 81.9072L195.747 70.3415L192.102 78.9298L188.235 77.2887L196.417 58.0133L200.283 59.6544L196.615 68.298L207.298 62.6318L211.965 64.6128L199.956 70.7917L204.004 83.9819L199.116 81.9072ZM215.969 73.6129C216.763 73.1243 217.69 72.8335 218.751 72.7405C219.838 72.637 220.943 72.8235 222.066 73.3002C223.373 73.8551 224.414 74.6774 225.19 75.7672C225.985 76.8648 226.431 78.1408 226.531 79.5954C226.657 81.0393 226.388 82.5437 225.723 84.1086C225.059 85.6734 224.156 86.9305 223.014 87.8799C221.899 88.8187 220.667 89.3928 219.318 89.6023C217.987 89.8197 216.668 89.6509 215.361 89.0961C214.238 88.6194 213.341 87.9673 212.671 87.1397C212.02 86.32 211.576 85.447 211.339 84.5208L207.318 93.9928L203.452 92.3518L213.041 69.7626L216.907 71.4036L215.969 73.6129ZM221.774 82.4323C222.165 81.5118 222.308 80.6381 222.203 79.8113C222.124 78.9738 221.845 78.2473 221.368 77.6318C220.909 77.0242 220.32 76.5679 219.602 76.2632C218.903 75.9662 218.162 75.869 217.38 75.9715C216.624 76.0634 215.908 76.3679 215.232 76.885C214.575 77.4098 214.051 78.1325 213.66 79.053C213.269 79.9735 213.113 80.8525 213.192 81.69C213.29 82.5353 213.564 83.271 214.015 83.897C214.493 84.5125 215.081 84.9688 215.781 85.2657C216.499 85.5705 217.24 85.6677 218.004 85.5574C218.786 85.4549 219.506 85.1412 220.163 84.6163C220.839 84.0992 221.376 83.3712 221.774 82.4323ZM240.394 87.7614C241.395 88.425 242.057 89.3471 242.382 90.5277C242.706 91.7083 242.626 92.8694 242.142 94.0108C241.704 95.0418 241.059 95.8437 240.208 96.4165C239.383 96.9787 238.397 97.2776 237.253 97.3131C236.108 97.3485 234.882 97.0889 233.575 96.534L225.262 93.0057L233.444 73.7303L241.397 77.1063C242.705 77.6611 243.738 78.3495 244.497 79.1715C245.275 80.0013 245.742 80.8952 245.901 81.8532C246.077 82.819 245.963 83.7805 245.556 84.7379C245.079 85.8609 244.377 86.6709 243.449 87.1678C242.54 87.6725 241.521 87.8704 240.394 87.7614ZM233.935 83.3246L237.469 84.825C238.39 85.2157 239.185 85.3141 239.854 85.12C240.53 84.9076 241.033 84.4148 241.361 83.6416C241.689 82.8683 241.695 82.1645 241.377 81.5301C241.06 80.8956 240.441 80.3831 239.521 79.9923L235.986 78.4919L233.935 83.3246ZM234.359 93.1515C235.297 93.55 236.118 93.6378 236.821 93.4147C237.543 93.1995 238.076 92.6869 238.419 91.8768C238.771 91.0484 238.768 90.2868 238.412 89.5921C238.062 88.879 237.418 88.3232 236.479 87.9246L232.669 86.307L230.465 91.4987L234.359 93.1515ZM245.284 92.4114C245.94 90.8649 246.826 89.6223 247.941 88.6835C249.075 87.7526 250.304 87.1876 251.627 86.9887C252.968 86.7976 254.292 86.9795 255.599 87.5343C256.741 88.0188 257.637 88.6709 258.289 89.4907C258.959 90.3182 259.403 91.1912 259.621 92.1096L260.547 89.928L264.441 91.5808L257.947 106.88L254.053 105.227L255.003 102.99C254.201 103.497 253.257 103.802 252.17 103.906C251.109 103.999 250.008 103.803 248.867 103.318C247.578 102.771 246.54 101.94 245.754 100.824C244.986 99.7157 244.543 98.4304 244.425 96.9681C244.333 95.4951 244.619 93.9762 245.284 92.4114ZM257.3 97.5774C257.699 96.6384 257.855 95.7595 257.768 94.9404C257.689 94.1029 257.411 93.3765 256.933 92.761C256.463 92.1271 255.87 91.6577 255.152 91.353C254.434 91.0482 253.697 90.9418 252.941 91.0337C252.185 91.1256 251.469 91.4301 250.793 91.9471C250.143 92.4536 249.623 93.1671 249.233 94.0876C248.842 95.0081 248.682 95.8963 248.753 96.7522C248.851 97.5974 249.125 98.3331 249.576 98.9592C250.046 99.5931 250.631 100.059 251.33 100.355C252.048 100.66 252.794 100.771 253.569 100.687C254.351 100.584 255.067 100.28 255.717 99.773C256.374 99.2482 256.902 98.5163 257.3 97.5774ZM276.789 96.5613C278.611 97.3349 279.838 98.54 280.469 100.177C281.107 101.795 280.989 103.635 280.113 105.697L276.304 114.672L272.438 113.03L276.025 104.58C276.54 103.365 276.631 102.306 276.297 101.404C275.971 100.484 275.283 99.8006 274.234 99.3551C273.166 98.9019 272.179 98.8738 271.271 99.2709C270.39 99.6573 269.692 100.458 269.176 101.673L265.589 110.123L261.723 108.482L268.217 93.1835L272.083 94.8246L271.274 96.7301C272.071 96.2861 272.943 96.048 273.891 96.0159C274.866 95.9731 275.831 96.1549 276.789 96.5613ZM289.038 120.077L286.613 111.356L283.846 117.873L279.98 116.232L288.655 95.7969L292.521 97.438L287.586 109.064L295.477 104.755L300.503 106.888L290.506 111.705L294.064 122.21L289.038 120.077Z" fill="white"/>
<path d="M88.5674 342.52L80.3972 361.768L77.8842 360.701L81.5884 351.975L71.785 347.813L68.0809 356.54L65.5679 355.473L73.7381 336.225L76.251 337.292L72.6641 345.742L82.4675 349.903L86.0544 341.453L88.5674 342.52ZM86.9845 355.569C87.6409 354.022 88.5282 352.802 89.6465 351.908C90.7726 350.995 92.0155 350.447 93.3752 350.264C94.7533 350.089 96.1143 350.286 97.4583 350.857C98.7838 351.419 99.8133 352.193 100.547 353.178C101.28 354.163 101.703 355.189 101.814 356.258L102.986 353.496L105.527 354.575L99.1032 369.708L96.5626 368.629L97.7583 365.813C96.8861 366.485 95.8279 366.905 94.5837 367.072C93.3657 367.229 92.1032 367.03 90.796 366.475C89.4521 365.904 88.3777 365.057 87.5728 363.934C86.768 362.81 86.3065 361.517 86.1885 360.054C86.0705 358.592 86.3358 357.097 86.9845 355.569ZM99.7862 361.035C100.271 359.894 100.463 358.802 100.362 357.76C100.261 356.718 99.9085 355.807 99.3045 355.03C98.7266 354.241 97.9682 353.648 97.0293 353.249C96.0904 352.851 95.1405 352.708 94.1798 352.822C93.219 352.935 92.3287 353.318 91.509 353.969C90.6893 354.621 90.0372 355.517 89.5527 356.659C89.0603 357.819 88.8607 358.929 88.9536 359.99C89.0544 361.032 89.3937 361.947 89.9716 362.736C90.5573 363.506 91.3196 364.09 92.2585 364.488C93.1974 364.887 94.1472 365.029 95.108 364.916C96.095 364.792 96.9984 364.404 97.8181 363.752C98.6456 363.082 99.3017 362.177 99.7862 361.035ZM128.089 363.826C129.267 364.326 130.211 365.02 130.921 365.908C131.638 366.777 132.057 367.813 132.176 369.015C132.296 370.218 132.059 371.519 131.465 372.918L127.679 381.837L125.194 380.783L128.827 372.222C129.468 370.712 129.579 369.401 129.16 368.289C128.768 367.167 127.936 366.336 126.666 365.797C125.359 365.242 124.139 365.224 123.006 365.742C121.881 366.243 120.983 367.284 120.311 368.868L116.771 377.207L114.286 376.152L117.919 367.592C118.56 366.082 118.671 364.771 118.252 363.659C117.86 362.537 117.028 361.706 115.758 361.166C114.451 360.612 113.231 360.593 112.098 361.112C110.973 361.612 110.075 362.654 109.403 364.237L105.863 372.577L103.35 371.51L109.774 356.377L112.287 357.444L111.36 359.626C112.194 359.045 113.114 358.719 114.122 358.647C115.149 358.583 116.169 358.766 117.181 359.196C118.451 359.735 119.453 360.497 120.187 361.482C120.92 362.467 121.292 363.613 121.302 364.921C122.178 364.033 123.23 363.501 124.455 363.326C125.681 363.152 126.892 363.318 128.089 363.826ZM140.566 366.547C140.087 366.344 139.753 366.007 139.562 365.534C139.371 365.062 139.377 364.587 139.58 364.108C139.784 363.63 140.121 363.295 140.593 363.104C141.065 362.914 141.541 362.92 142.019 363.123C142.48 363.318 142.796 363.648 142.968 364.112C143.159 364.584 143.153 365.06 142.95 365.539C142.746 366.017 142.409 366.352 141.937 366.543C141.483 366.741 141.026 366.743 140.566 366.547ZM140.738 369.521L134.314 384.654L131.801 383.587L138.225 368.454L140.738 369.521ZM155.863 384.186C155.659 384.665 155.417 385.16 155.135 385.67L143.04 380.536C142.499 382.066 142.509 383.45 143.07 384.688C143.657 385.915 144.613 386.81 145.939 387.372C147.025 387.833 148.033 387.968 148.962 387.775C149.917 387.572 150.721 387.11 151.376 386.388L154.082 387.537C153.059 388.819 151.745 389.663 150.14 390.068C148.542 390.454 146.84 390.264 145.036 389.499C143.6 388.889 142.448 388.02 141.58 386.891C140.731 385.77 140.234 384.484 140.09 383.032C139.953 381.562 140.217 380.044 140.882 378.479C141.546 376.914 142.441 375.676 143.567 374.763C144.693 373.851 145.951 373.32 147.339 373.17C148.754 373.011 150.198 373.243 151.671 373.868C153.107 374.478 154.244 375.33 155.083 376.425C155.922 377.52 156.402 378.745 156.522 380.099C156.668 381.443 156.449 382.806 155.863 384.186ZM153.489 382.56C153.896 381.603 154.032 380.693 153.898 379.833C153.771 378.953 153.414 378.182 152.826 377.52C152.264 376.847 151.542 376.323 150.658 375.948C149.388 375.409 148.129 375.353 146.883 375.78C145.656 376.215 144.673 377.123 143.935 378.504L153.489 382.56ZM160.973 396.264C159.814 395.771 158.855 395.136 158.099 394.359C157.351 393.563 156.858 392.702 156.621 391.776C156.392 390.831 156.445 389.887 156.78 388.943L159.376 390.045C159.129 390.831 159.217 391.596 159.64 392.341C160.081 393.093 160.817 393.688 161.848 394.125C162.806 394.532 163.65 394.64 164.382 394.451C165.115 394.262 165.617 393.846 165.891 393.201C166.172 392.539 166.085 391.926 165.628 391.363C165.18 390.781 164.405 390.072 163.305 389.236C162.307 388.464 161.511 387.779 160.918 387.18C160.352 386.57 159.936 385.861 159.67 385.053C159.431 384.235 159.518 383.337 159.933 382.362C160.261 381.588 160.792 380.977 161.526 380.528C162.259 380.079 163.128 379.851 164.131 379.842C165.142 379.815 166.19 380.032 167.277 380.493C168.952 381.204 170.125 382.202 170.797 383.486C171.468 384.771 171.528 386.165 170.977 387.669L168.464 386.602C168.745 385.787 168.692 385.015 168.306 384.287C167.939 383.566 167.267 382.998 166.291 382.584C165.389 382.201 164.589 382.089 163.891 382.249C163.193 382.409 162.711 382.802 162.446 383.428C162.235 383.925 162.215 384.406 162.388 384.87C162.586 385.324 162.882 385.754 163.274 386.159C163.693 386.554 164.285 387.055 165.048 387.662C166.009 388.418 166.768 389.087 167.324 389.671C167.888 390.236 168.288 390.906 168.525 391.68C168.78 392.461 168.721 393.316 168.349 394.245C167.997 395.073 167.45 395.721 166.709 396.188C165.967 396.656 165.091 396.903 164.08 396.93C163.095 396.947 162.06 396.725 160.973 396.264ZM173.53 398.888L180.268 401.748L179.401 403.792L170.149 399.865L178.32 380.617L180.833 381.684L173.53 398.888ZM184.366 396.905C185.022 395.358 185.909 394.138 187.028 393.244C188.154 392.331 189.397 391.783 190.756 391.6C192.134 391.424 193.495 391.622 194.839 392.192C196.165 392.755 197.194 393.529 197.928 394.514C198.661 395.499 199.084 396.525 199.195 397.594L200.367 394.832L202.908 395.911L196.484 411.044L193.944 409.965L195.139 407.149C194.267 407.821 193.209 408.241 191.965 408.408C190.747 408.565 189.484 408.366 188.177 407.811C186.833 407.24 185.759 406.393 184.954 405.269C184.149 404.146 183.688 402.852 183.57 401.39C183.452 399.928 183.717 398.433 184.366 396.905ZM197.167 402.371C197.652 401.23 197.844 400.138 197.743 399.096C197.642 398.053 197.29 397.143 196.686 396.365C196.108 395.577 195.349 394.983 194.41 394.585C193.472 394.186 192.522 394.044 191.561 394.158C190.6 394.271 189.71 394.654 188.89 395.305C188.07 395.957 187.418 396.853 186.934 397.995C186.441 399.154 186.242 400.265 186.335 401.325C186.436 402.368 186.775 403.283 187.353 404.071C187.938 404.841 188.701 405.426 189.64 405.824C190.579 406.223 191.528 406.365 192.489 406.252C193.476 406.127 194.38 405.74 195.199 405.088C196.027 404.418 196.683 403.513 197.167 402.371ZM203.027 404.826C203.684 403.28 204.571 402.059 205.689 401.165C206.816 400.253 208.058 399.705 209.418 399.521C210.796 399.346 212.166 399.547 213.529 400.126C214.707 400.626 215.685 401.367 216.463 402.349C217.249 403.313 217.722 404.35 217.88 405.46L221.28 397.452L223.82 398.53L215.146 418.965L212.606 417.887L213.813 415.042C212.933 415.733 211.88 416.166 210.654 416.341C209.436 416.498 208.174 416.299 206.867 415.744C205.523 415.174 204.439 414.322 203.616 413.191C202.811 412.067 202.349 410.774 202.231 409.312C202.113 407.849 202.379 406.354 203.027 404.826ZM215.829 410.293C216.314 409.151 216.505 408.059 216.405 407.017C216.304 405.975 215.951 405.065 215.347 404.287C214.77 403.498 214.011 402.905 213.072 402.506C212.133 402.108 211.183 401.965 210.223 402.079C209.262 402.193 208.372 402.575 207.552 403.227C206.732 403.878 206.08 404.775 205.596 405.916C205.103 407.076 204.904 408.186 204.997 409.247C205.097 410.289 205.437 411.204 206.015 411.993C206.6 412.763 207.362 413.347 208.301 413.746C209.24 414.144 210.19 414.287 211.151 414.173C212.138 414.049 213.041 413.661 213.861 413.01C214.689 412.34 215.345 411.434 215.829 410.293Z" fill="white"/>
<path d="M454.561 499.732L455.534 497.44L460.725 499.644L452.25 519.61L449.71 518.531L457.212 500.858L454.561 499.732ZM460.892 511.252C462.236 508.086 463.799 505.837 465.58 504.508C467.369 503.16 469.552 503.032 472.13 504.127C474.689 505.213 476.105 506.868 476.378 509.091C476.658 511.296 476.127 513.982 474.783 517.148C473.415 520.37 471.837 522.655 470.048 524.003C468.259 525.351 466.085 525.482 463.526 524.396C460.948 523.302 459.523 521.643 459.25 519.42C458.977 517.196 459.525 514.474 460.892 511.252ZM472.297 516.093C472.977 514.492 473.441 513.092 473.689 511.893C473.963 510.684 473.913 509.598 473.54 508.636C473.185 507.681 472.39 506.942 471.157 506.419C469.905 505.887 468.803 505.821 467.851 506.221C466.918 506.629 466.102 507.347 465.404 508.377C464.733 509.395 464.057 510.705 463.378 512.307C462.674 513.964 462.186 515.397 461.911 516.606C461.656 517.823 461.705 518.908 462.061 519.863C462.434 520.826 463.247 521.573 464.499 522.104C465.732 522.628 466.816 522.686 467.749 522.278C468.701 521.878 469.517 521.16 470.196 520.122C470.894 519.093 471.594 517.75 472.297 516.093ZM494.753 506.95L474.151 534.447L471.666 533.392L492.24 505.884L494.753 506.95ZM487.593 532.233C490.728 531.347 493.212 530.588 495.045 529.954C496.887 529.301 498.536 528.513 499.993 527.589C501.476 526.654 502.487 525.551 503.026 524.281C503.534 523.084 503.638 522.02 503.338 521.089C503.065 520.147 502.283 519.403 500.995 518.856C499.743 518.324 498.599 518.306 497.563 518.801C496.554 519.285 495.744 520.169 495.134 521.452L492.704 520.421C493.653 518.39 494.955 517.063 496.61 516.441C498.265 515.818 500.022 515.901 501.881 516.69C503.778 517.495 505.055 518.657 505.714 520.175C506.392 521.701 506.34 523.384 505.559 525.225C504.91 526.754 503.817 528.049 502.279 529.113C500.767 530.166 499.197 530.999 497.568 531.611C495.948 532.205 493.926 532.846 491.505 533.535L501.004 537.567L500.113 539.666L486.831 534.028L487.593 532.233ZM510.977 532.284C510.118 531.441 509.577 530.516 509.353 529.508C509.129 528.501 509.251 527.445 509.72 526.34C510.142 525.346 510.769 524.558 511.602 523.978C512.443 523.379 513.449 523.056 514.62 523.01C515.818 522.953 517.116 523.222 518.515 523.816C519.914 524.41 521 525.153 521.773 526.046C522.572 526.928 523.048 527.88 523.201 528.901C523.38 529.911 523.259 530.914 522.837 531.908C522.384 532.976 521.7 533.793 520.785 534.361C519.879 534.911 518.846 535.168 517.688 535.132C518.681 535.967 519.321 536.966 519.609 538.131C519.923 539.286 519.818 540.48 519.294 541.713C518.786 542.91 518.046 543.834 517.074 544.486C516.11 545.12 514.979 545.455 513.682 545.491C512.411 545.516 511.076 545.232 509.677 544.638C508.278 544.044 507.146 543.281 506.281 542.349C505.443 541.407 504.917 540.368 504.703 539.235C504.496 538.083 504.647 536.908 505.155 535.711C505.679 534.478 506.46 533.56 507.497 532.958C508.535 532.355 509.695 532.131 510.977 532.284ZM520.278 531.18C520.755 530.057 520.754 529.036 520.275 528.115C519.797 527.195 518.913 526.462 517.624 525.915C516.354 525.376 515.222 525.253 514.227 525.548C513.233 525.843 512.494 526.561 512.009 527.703C511.572 528.734 511.597 529.723 512.087 530.669C512.594 531.623 513.455 532.358 514.67 532.874C515.904 533.397 517.031 533.506 518.051 533.201C519.098 532.885 519.84 532.211 520.278 531.18ZM513.85 534.807C512.488 534.229 511.237 534.078 510.098 534.355C508.967 534.614 508.132 535.378 507.593 536.648C507.093 537.827 507.105 538.951 507.628 540.02C508.17 541.098 509.15 541.937 510.568 542.539C511.985 543.141 513.261 543.258 514.394 542.892C515.527 542.526 516.344 541.754 516.844 540.575C517.368 539.342 517.343 538.223 516.769 537.219C516.204 536.197 515.231 535.393 513.85 534.807Z" fill="white"/>
<path d="M481.769 471.412L471.533 482.168L469.102 481.136L469.71 466.294L471.956 467.247L471.232 479.498L479.56 470.474L481.769 471.412ZM479.566 479.537C479.998 478.519 480.59 477.705 481.34 477.097C482.103 476.494 482.938 476.131 483.844 476.009C484.768 475.879 485.672 476.002 486.556 476.377C487.354 476.716 487.979 477.17 488.433 477.739C488.904 478.301 489.219 478.891 489.377 479.508L490.002 478.036L492.119 478.934L487.813 489.078L485.696 488.18L486.337 486.67C485.778 486.998 485.124 487.191 484.375 487.249C483.625 487.308 482.858 487.171 482.073 486.837C481.201 486.467 480.497 485.908 479.961 485.158C479.429 484.397 479.118 483.526 479.027 482.546C478.954 481.559 479.133 480.556 479.566 479.537ZM487.853 483.098C488.15 482.399 488.26 481.729 488.185 481.088C488.121 480.453 487.914 479.901 487.562 479.433C487.21 478.965 486.764 478.617 486.224 478.388C485.684 478.158 485.124 478.08 484.543 478.152C483.967 478.212 483.422 478.437 482.909 478.827C482.413 479.21 482.017 479.752 481.72 480.452C481.423 481.151 481.303 481.825 481.362 482.472C481.432 483.125 481.641 483.692 481.987 484.172C482.351 484.645 482.797 484.994 483.325 485.218C483.865 485.447 484.425 485.526 485.006 485.453C485.587 485.381 486.129 485.148 486.63 484.752C487.148 484.349 487.556 483.798 487.853 483.098ZM498.451 477.516L492.669 491.139L490.57 490.248L496.353 476.625L498.451 477.516ZM496.216 492.797C495.836 492.636 495.571 492.371 495.423 492.004C495.275 491.637 495.281 491.263 495.443 490.883C495.604 490.502 495.869 490.238 496.236 490.09C496.603 489.941 496.977 489.948 497.357 490.109C497.725 490.266 497.984 490.527 498.132 490.895C498.28 491.262 498.274 491.636 498.112 492.016C497.951 492.396 497.686 492.661 497.319 492.809C496.952 492.958 496.584 492.954 496.216 492.797ZM499.498 485.065C499.118 484.904 498.854 484.639 498.705 484.272C498.557 483.905 498.563 483.531 498.725 483.151C498.886 482.77 499.151 482.506 499.518 482.357C499.885 482.209 500.259 482.216 500.639 482.377C501.008 482.533 501.266 482.795 501.414 483.162C501.562 483.529 501.556 483.903 501.394 484.284C501.233 484.664 500.969 484.929 500.601 485.077C500.234 485.225 499.867 485.221 499.498 485.065Z" fill="white" fill-opacity="0.7"/>
<path d="M92.1658 321.136L90.067 320.245L87.8082 308.01L83.7524 317.565L81.6536 316.674L87.0926 303.86L89.1914 304.751L91.458 316.968L95.506 307.432L97.6048 308.323L92.1658 321.136ZM99.2515 324.339C98.2942 323.933 97.5201 323.351 96.9292 322.593C96.3435 321.823 95.9965 320.951 95.8881 319.978C95.7849 318.993 95.9547 317.979 96.3975 316.936C96.8351 315.905 97.4503 315.087 98.2431 314.482C99.0358 313.877 99.9161 313.526 100.884 313.43C101.852 313.334 102.82 313.491 103.79 313.903C104.76 314.315 105.546 314.902 106.149 315.665C106.752 316.428 107.112 317.305 107.227 318.295C107.343 319.286 107.182 320.296 106.744 321.327C106.306 322.358 105.685 323.174 104.88 323.773C104.075 324.373 103.174 324.722 102.176 324.82C101.196 324.911 100.221 324.751 99.2515 324.339ZM100.025 322.517C100.565 322.746 101.123 322.831 101.699 322.771C102.287 322.716 102.838 322.494 103.351 322.103C103.864 321.713 104.277 321.149 104.59 320.413C104.903 319.677 105.025 318.997 104.956 318.374C104.892 317.739 104.682 317.193 104.325 316.737C103.968 316.282 103.52 315.939 102.98 315.71C102.44 315.481 101.882 315.396 101.306 315.456C100.742 315.521 100.216 315.754 99.7274 316.155C99.2438 316.543 98.8457 317.106 98.5331 317.842C98.0694 318.934 97.9861 319.898 98.2831 320.734C98.5976 321.563 99.1783 322.157 100.025 322.517ZM123.318 322.192C124.115 322.531 124.757 322.998 125.242 323.595C125.74 324.198 126.028 324.9 126.108 325.701C126.2 326.508 126.051 327.372 125.66 328.292L123.121 334.275L121.04 333.392L123.447 327.722C123.833 326.814 123.9 326.024 123.649 325.353C123.403 324.669 122.888 324.16 122.102 323.827C121.317 323.494 120.586 323.473 119.912 323.766C119.254 324.052 118.733 324.649 118.347 325.557L115.941 331.228L113.86 330.345L116.267 324.674C116.653 323.766 116.72 322.976 116.469 322.305C116.223 321.621 115.708 321.113 114.922 320.779C114.137 320.446 113.407 320.426 112.732 320.719C112.074 321.004 111.553 321.602 111.168 322.51L108.761 328.18L106.662 327.289L110.968 317.145L113.066 318.036L112.574 319.196C113.095 318.925 113.669 318.784 114.295 318.775C114.922 318.766 115.536 318.889 116.138 319.144C116.948 319.488 117.599 319.967 118.091 320.582C118.584 321.196 118.864 321.902 118.931 322.698C119.498 322.215 120.183 321.933 120.984 321.853C121.791 321.761 122.569 321.874 123.318 322.192ZM137.347 334.035C137.185 334.415 137.015 334.749 136.835 335.035L129.085 331.745C128.802 332.581 128.827 333.359 129.158 334.079C129.49 334.799 130.049 335.326 130.834 335.659C131.963 336.139 132.962 336.005 133.829 335.258L136.094 336.219C135.391 337.022 134.507 337.552 133.442 337.809C132.394 338.06 131.274 337.932 130.084 337.427C129.114 337.015 128.334 336.431 127.743 335.673C127.17 334.908 126.829 334.039 126.721 333.066C126.63 332.086 126.806 331.074 127.248 330.031C127.691 328.988 128.288 328.162 129.039 327.554C129.807 326.938 130.663 326.577 131.606 326.471C132.561 326.369 133.536 326.529 134.53 326.951C135.488 327.358 136.252 327.929 136.824 328.664C137.395 329.399 137.728 330.235 137.823 331.173C137.922 332.099 137.763 333.053 137.347 334.035ZM135.437 332.442C135.753 331.664 135.74 330.927 135.398 330.231C135.056 329.536 134.486 329.018 133.688 328.68C132.964 328.372 132.245 328.342 131.532 328.59C130.824 328.825 130.254 329.315 129.822 330.059L135.437 332.442ZM137.946 340.72C137.565 340.559 137.301 340.295 137.153 339.928C137.004 339.56 137.011 339.187 137.172 338.806C137.334 338.426 137.598 338.161 137.965 338.013C138.332 337.865 138.706 337.871 139.087 338.033C139.455 338.189 139.713 338.451 139.862 338.818C140.01 339.185 140.003 339.559 139.842 339.939C139.68 340.32 139.416 340.584 139.049 340.732C138.682 340.881 138.314 340.877 137.946 340.72ZM141.228 332.988C140.847 332.827 140.583 332.562 140.435 332.195C140.286 331.828 140.293 331.454 140.454 331.074C140.616 330.693 140.88 330.429 141.247 330.281C141.615 330.132 141.988 330.139 142.369 330.3C142.737 330.457 142.995 330.718 143.144 331.086C143.292 331.453 143.285 331.826 143.124 332.207C142.962 332.587 142.698 332.852 142.331 333C141.964 333.149 141.596 333.145 141.228 332.988Z" fill="white" fill-opacity="0.7"/>
<defs>
<linearGradient id="paint0_linear_37_4" x1="555.189" y1="0.551117" x2="555.189" y2="431.551" gradientUnits="userSpaceOnUse">
<stop offset="0.296667" stop-color="#000080"/>
<stop offset="1" stop-color="#737373"/>
</linearGradient>
</defs>
</svg>
